<svg width="1294" height="916" viewBox="0 0 1294 916" fill="none" xmlns="http://www.w3.org/2000/svg">
<rect width="1294" height="915.738" fill="white"/>
<g filter="url(#filter0_d_149_98)">
<path d="M1091.46 165.93C1096.47 155.069 1100.11 145.195 1099.53 143.961C1098.96 142.727 1089.89 141.74 1079.36 141.74H700.843C690.318 141.74 677.745 150.267 672.923 160.702C668.1 171.136 663.469 181.122 662.685 182.918C661.9 184.713 657.671 193.868 653.308 203.293C648.945 212.718 646.055 221.896 646.897 223.669C647.739 225.442 657.02 226.9 667.545 226.9H851.198C861.723 226.9 866.278 235.675 861.321 246.401C856.365 257.128 852.155 266.283 851.944 266.71C851.734 267.136 847.524 276.336 842.568 287.085C837.611 297.834 833.401 307.035 833.191 307.461C832.98 307.888 828.77 317.043 823.814 327.77C818.858 338.496 814.609 347.741 814.38 348.28C814.15 348.819 809.921 358.019 805.003 368.656C800.085 379.292 795.836 388.493 795.568 389.032C795.301 389.57 791.282 398.299 786.613 408.397C781.962 418.496 777.465 428.212 776.643 430.008C775.82 431.803 771.59 440.936 767.266 450.316C762.941 459.696 758.712 468.874 757.889 470.692C757.066 472.509 752.626 482.114 748.014 492.032C743.402 501.951 739.652 510.074 739.652 510.119C739.652 510.164 739.001 511.645 738.197 513.418C737.394 515.191 733.184 524.346 728.82 533.727C724.457 543.107 720.247 552.262 719.444 554.035C718.64 555.808 714.583 564.627 710.43 573.603C706.278 582.579 702.202 591.398 701.379 593.171C700.556 594.944 696.327 604.099 692.002 613.479C687.677 622.859 680.596 622.882 676.253 613.479C671.909 604.077 667.871 595.303 667.239 593.979C666.608 592.655 662.532 583.836 658.188 574.411C653.844 564.986 649.615 555.808 648.811 554.035C648.007 552.262 643.797 543.107 639.434 533.727C635.071 524.324 630.631 514.764 629.56 512.453C628.488 510.142 624.067 500.56 619.743 491.112C615.418 481.665 611.189 472.509 610.366 470.737C609.543 468.964 605.314 459.786 600.989 450.361C596.664 440.936 592.167 431.219 591.019 428.751C589.871 426.282 585.373 416.588 581.049 407.141C576.724 397.693 572.495 388.538 571.672 386.765C570.849 384.992 566.601 375.814 562.237 366.389C557.874 356.964 553.454 347.36 552.42 345.049C551.387 342.737 550.526 340.83 550.526 340.785C550.526 340.74 546.966 333.043 542.603 323.641C538.24 314.238 534.03 305.105 533.227 303.332C532.423 301.559 528.213 292.381 523.85 282.956C519.487 273.531 515.41 264.757 514.798 263.456C514.186 262.154 510.129 253.38 505.785 243.955C501.441 234.53 497.231 225.352 496.408 223.579C495.585 221.807 491.337 212.628 486.974 203.204C482.611 193.779 478.19 184.174 477.157 181.863C476.123 179.552 471.511 169.566 466.919 159.647C462.326 149.728 457.618 141.627 456.451 141.627C455.284 141.627 450.385 150.155 445.562 160.589C440.74 171.024 436.109 181.01 435.324 182.805C434.54 184.601 430.311 193.756 425.947 203.181C421.584 212.606 417.336 221.784 416.513 223.557C415.69 225.33 411.193 235.069 406.543 245.167C401.893 255.265 397.855 264.039 397.587 264.668C397.319 265.296 393.09 274.474 388.21 285.043C383.33 295.613 379.063 304.791 378.776 305.419C378.489 306.047 374.126 315.45 369.112 326.289L368.691 327.186C363.677 338.047 359.352 347.427 359.085 348.056C358.817 348.684 354.587 357.862 349.708 368.431C344.828 379.001 340.56 388.179 340.273 388.807C339.986 389.436 335.929 398.21 331.26 408.308C326.591 418.406 322.132 428.122 321.347 429.918C320.563 431.713 316.334 440.869 311.971 450.294C307.607 459.718 303.359 468.897 302.536 470.669C301.713 472.442 297.293 482.047 292.719 492.01C288.146 501.974 283.744 511.556 282.902 513.351C282.06 515.146 277.831 524.302 273.468 533.727C269.105 543.151 264.895 552.307 264.091 554.035C263.287 555.763 258.561 566.018 253.585 576.789C248.61 587.561 240.438 605.266 235.463 616.127L234.946 617.249C229.952 628.11 221.761 645.883 216.747 656.744L215.255 659.953C210.241 670.792 202.032 688.564 197.037 699.426L196.444 700.705C191.449 711.566 195.965 720.452 206.49 720.452H245.108C255.633 720.452 268.359 711.588 273.372 700.727L273.985 699.403C278.998 688.564 287.208 670.792 292.203 659.931L293.657 656.767C298.652 645.905 303.034 636.368 303.397 635.605C303.761 634.842 307.971 625.687 312.774 615.297C317.578 604.907 330.112 596.402 340.637 596.402H452.911C463.436 596.402 472.334 595.774 472.698 594.988C473.061 594.203 473.636 594.203 473.999 594.988C474.363 595.774 483.261 596.402 493.786 596.402H572.303C582.828 596.402 595.363 604.907 600.166 615.297C604.969 625.687 609.198 634.842 609.543 635.605C609.887 636.368 614.116 645.569 618.92 655.981C623.723 666.393 627.646 674.988 627.646 675.01C627.646 675.033 628.163 676.11 628.775 677.367C629.387 678.623 633.444 687.375 637.788 696.8C642.132 706.225 646.342 715.403 647.165 717.176C647.988 718.949 657.288 720.407 667.813 720.407H700.498C711.023 720.407 720.305 718.949 721.147 717.176C721.989 715.403 726.218 706.225 730.581 696.8C734.944 687.375 739.154 678.219 739.958 676.492C740.762 674.764 745.182 665.159 749.775 655.151C754.368 645.143 758.425 636.346 758.788 635.583C759.152 634.82 763.362 625.664 768.165 615.274C772.968 604.885 777.197 595.729 777.542 594.966C777.886 594.203 781.943 585.384 786.555 575.398C791.167 565.412 795.588 555.785 796.43 553.99C797.272 552.195 801.482 543.062 805.806 533.682C810.131 524.279 814.36 515.146 815.183 513.373C816.006 511.6 820.446 501.996 825.058 492.032C829.67 482.069 833.65 473.362 833.956 472.667C834.262 471.971 838.472 462.793 843.333 452.291C848.194 441.789 852.442 432.611 852.767 431.915C853.093 431.219 857.418 421.862 862.374 411.135C867.33 400.409 871.54 391.253 871.751 390.827C871.961 390.4 876.171 381.2 881.128 370.451C886.084 359.68 890.294 350.502 890.505 350.075C890.715 349.649 894.982 340.381 899.996 329.542L900.723 327.949C905.737 317.11 910.024 307.865 910.215 307.416C910.406 306.967 914.636 297.834 919.592 287.108C924.548 276.381 928.758 267.203 928.969 266.732C929.179 266.261 933.389 257.083 938.346 246.356C943.302 235.63 955.97 226.856 966.495 226.856H1044.15C1054.68 226.856 1063.38 226.654 1063.5 226.384C1063.61 226.115 1067.78 217.094 1072.78 206.345C1077.77 195.596 1081.77 186.62 1081.68 186.441C1081.58 186.261 1081.68 186.104 1081.83 186.104C1081.98 186.104 1086.25 177.218 1091.27 166.379L1091.49 165.885L1091.46 165.93ZM377.341 516.762C366.816 516.762 358.874 515.303 359.716 513.53C360.558 511.757 364.979 502.153 369.59 492.19C374.183 482.248 378.24 473.452 378.604 472.689C378.967 471.926 383.177 462.725 387.981 452.313C392.784 441.901 397.013 432.7 397.358 431.937C397.702 431.174 402.103 421.637 407.117 410.799L407.538 409.901C412.552 399.04 416.877 389.66 417.145 389.032C417.413 388.403 421.642 379.225 426.521 368.656C431.401 358.086 435.669 348.908 435.956 348.28C436.243 347.652 440.606 338.249 445.62 327.411L446.041 326.513C451.055 315.652 455.456 306.137 455.8 305.374C456.145 304.611 456.738 304.589 457.102 305.374C457.465 306.16 461.675 315.338 466.478 325.75C471.282 336.162 475.702 345.789 476.296 347.091C476.889 348.392 480.946 357.166 485.309 366.591C489.672 376.016 493.882 385.194 494.686 386.967C495.489 388.74 499.699 397.918 504.063 407.343C508.426 416.768 512.904 426.484 514.033 428.953C515.162 431.421 519.582 441.003 523.85 450.294C528.117 459.584 532.365 468.739 533.284 470.669C534.202 472.599 538.451 481.732 542.718 490.978C546.986 500.223 551.406 509.828 552.535 512.318C553.664 514.809 545.971 516.851 535.446 516.851H377.341V516.762Z" fill="url(#paint0_linear_149_98)"/>
</g>
<defs>
<filter id="filter0_d_149_98" x="164.408" y="140.627" width="941.184" height="614.825" filterUnits="userSpaceOnUse" color-interpolation-filters="sRGB">
<feFlood flood-opacity="0" result="BackgroundImageFix"/>
<feColorMatrix in="SourceAlpha" type="matrix" values="0 0 0 0 0 0 0 0 0 0 0 0 0 0 0 0 0 0 127 0" result="hardAlpha"/>
<feOffset dx="-12" dy="17"/>
<feGaussianBlur stdDeviation="9"/>
<feComposite in2="hardAlpha" operator="out"/>
<feColorMatrix type="matrix" values="0 0 0 0 0 0 0 0 0 0 0 0 0 0 0 0 0 0 0.25 0"/>
<feBlend mode="normal" in2="BackgroundImageFix" result="effect1_dropShadow_149_98"/>
<feBlend mode="normal" in="SourceGraphic" in2="effect1_dropShadow_149_98" result="shape"/>
</filter>
<linearGradient id="paint0_linear_149_98" x1="194.408" y1="659.998" x2="1037.86" y2="256.717" gradientUnits="userSpaceOnUse">
<stop offset="0.145391" stop-color="#1F1F1F"/>
<stop offset="1" stop-color="#F3DB00"/>
</linearGradient>
</defs>
</svg>
